<svg width="18" height="19" viewBox="0 0 18 19" fill="none" xmlns="http://www.w3.org/2000/svg">
<path d="M10.4408 0.388408C9.55442 -0.12947 8.44558 -0.129469 7.55918 0.388409L6.91825 0.762871C5.36312 1.67145 3.61727 2.22899 1.80997 2.3942L1.40617 2.43111C0.609097 2.50398 0 3.15326 0 3.93007V5.91009C0 9.25687 1.40038 12.4602 3.88035 14.7864L7.92149 18.5769C8.52295 19.141 9.47705 19.141 10.0785 18.5769L14.1196 14.7864C16.5996 12.4602 18 9.25686 18 5.91008V3.93007C18 3.15326 17.3909 2.50398 16.5938 2.43111L16.19 2.3942C14.3827 2.22899 12.6369 1.67145 11.0817 0.76287L10.4408 0.388408Z" fill="#54637E"/>
</svg>
